<svg id="svg" version="1.1" xmlns="http://www.w3.org/2000/svg" xmlns:xlink="http://www.w3.org/1999/xlink" width="400" height="400" viewBox="0, 0, 400,400"><g id="svgg"><path id="path0" d="M250.176 109.863 C 250.403 172.763,250.552 187.254,251.008 190.595 C 251.313 192.835,251.563 194.830,251.563 195.029 C 251.563 195.227,250.741 194.274,249.737 192.910 C 231.294 167.854,195.129 159.639,166.816 174.073 C 121.243 197.306,117.805 260.972,160.605 289.079 C 196.899 312.914,246.749 295.295,260.116 253.906 C 263.129 244.578,263.273 241.125,263.336 176.387 C 263.366 145.653,263.498 115.386,263.629 109.127 L 263.867 97.745 300.391 108.984 L 336.914 120.222 337.014 90.127 C 337.069 73.574,337.058 59.975,336.989 59.906 C 336.822 59.738,250.571 33.203,250.194 33.203 C 250.033 33.203,250.024 67.700,250.176 109.863 " stroke="none" fill="#fc3433" fill-rule="evenodd"></path><path id="path1" d="M185.938 100.232 C 185.186 100.317,182.900 100.574,180.859 100.803 C 104.589 109.346,50.903 183.190,65.858 258.982 C 85.288 357.446,201.947 400.036,280.598 337.378 C 344.202 286.708,347.125 188.950,286.664 134.498 C 279.928 128.432,267.554 119.361,264.355 118.145 C 263.706 117.898,263.672 120.716,263.672 173.951 C 263.672 246.327,263.573 247.804,257.879 260.488 C 236.440 308.245,170.721 313.960,141.476 270.610 C 116.765 233.982,133.922 184.016,176.046 169.933 C 202.066 161.233,232.316 170.133,248.819 191.345 C 251.292 194.523,251.386 194.542,250.741 191.739 C 250.383 190.182,250.223 179.575,250.114 150.138 L 249.969 110.628 244.804 108.666 C 234.886 104.897,225.918 102.612,214.453 100.934 C 210.558 100.364,189.382 99.843,185.938 100.232 " stroke="none" fill="#fccc04" fill-rule="evenodd"></path><path id="path2" d="M263.471 172.266 C 263.471 202.236,263.518 214.497,263.574 199.512 C 263.631 184.526,263.631 160.005,263.574 145.020 C 263.518 130.034,263.471 142.295,263.471 172.266 M130.185 233.203 C 130.185 234.170,130.261 234.565,130.354 234.082 C 130.447 233.599,130.447 232.808,130.354 232.324 C 130.261 231.841,130.185 232.236,130.185 233.203 " stroke="none" fill="#fc6523" fill-rule="evenodd"></path><path id="path3" d="M250.187 148.047 C 250.187 168.350,250.235 176.655,250.293 166.504 C 250.351 156.353,250.351 139.741,250.293 129.590 C 250.235 119.438,250.187 127.744,250.187 148.047 M149.609 186.133 C 148.661 187.100,147.972 187.891,148.080 187.891 C 148.187 187.891,149.051 187.100,150.000 186.133 C 150.949 185.166,151.637 184.375,151.530 184.375 C 151.422 184.375,150.558 185.166,149.609 186.133 M243.734 186.035 C 244.691 187.056,245.526 187.891,245.589 187.891 C 245.882 187.891,245.572 187.540,243.848 185.921 L 241.992 184.180 243.734 186.035 M263.393 228.320 C 263.396 229.395,263.472 229.788,263.562 229.194 C 263.651 228.600,263.649 227.721,263.556 227.241 C 263.464 226.760,263.390 227.246,263.393 228.320 M130.169 230.469 C 130.169 231.221,130.249 231.528,130.347 231.152 C 130.446 230.776,130.446 230.161,130.347 229.785 C 130.249 229.409,130.169 229.717,130.169 230.469 M130.177 236.133 C 130.181 236.992,130.261 237.298,130.354 236.812 C 130.448 236.326,130.444 235.623,130.347 235.249 C 130.249 234.876,130.172 235.273,130.177 236.133 " stroke="none" fill="#fc871a" fill-rule="evenodd"></path><path id="path4" d="M195.020 166.693 C 196.040 166.774,197.710 166.774,198.730 166.693 C 199.751 166.613,198.916 166.547,196.875 166.547 C 194.834 166.547,193.999 166.613,195.020 166.693 M263.372 231.250 C 263.372 232.002,263.452 232.310,263.551 231.934 C 263.649 231.558,263.649 230.942,263.551 230.566 C 263.452 230.190,263.372 230.498,263.372 231.250 M149.414 280.469 C 150.472 281.543,151.426 282.422,151.533 282.422 C 151.641 282.422,150.863 281.543,149.805 280.469 C 148.747 279.395,147.793 278.516,147.686 278.516 C 147.578 278.516,148.356 279.395,149.414 280.469 M244.120 280.371 L 242.773 281.836 244.238 280.490 C 245.602 279.237,245.883 278.906,245.584 278.906 C 245.519 278.906,244.860 279.565,244.120 280.371 " stroke="none" fill="#fcad0c" fill-rule="evenodd"></path></g></svg>